# xmcd
#
# Track frame offsets:
#	150
#	29106
#	56263
#	81693
#
# Disc length: 1434 seconds
#
# Revision: 0
# Processed by: cddbd v1.5.2PL0 Copyright (c) Steve Scherf et al.
# Submitted via: EasyCDDAExtractor 12.0.0.1
#
DISCID=33059804
DTITLE=Inxs - Original Sin
DYEAR=1900
DGENRE=
TTITLE0=Original Sin (12'' Version)
TTITLE1=Original Sin (Dance Version)
TTITLE2=What You Need (Extended Version)
TTITLE3=Listen Like Thieves (Extended Remix)
EXTD=
EXTT0=
EXTT1=
EXTT2=
EXTT3=
PLAYORDER=
